<svg width="320" height="140" viewBox="0 0 320 140" fill="none" xmlns="http://www.w3.org/2000/svg">
  <defs>
    <linearGradient id="healthBg" x1="0%" y1="0%" x2="100%" y2="100%">
      <stop offset="0%" style="stop-color:#0D1117"/>
      <stop offset="100%" style="stop-color:#1a2332"/>
    </linearGradient>
    <linearGradient id="healthAccent" x1="0%" y1="0%" x2="100%" y2="100%">
      <stop offset="0%" style="stop-color:#FF4D6D"/>
      <stop offset="100%" style="stop-color:#FF8FAB"/>
    </linearGradient>
  </defs>
  <rect width="320" height="140" fill="url(#healthBg)"/>

  <!-- Decorative shapes -->
  <circle cx="270" cy="40" r="55" fill="#FF4D6D" opacity="0.1"/>
  <circle cx="60" cy="110" r="40" fill="#FF8FAB" opacity="0.08"/>

  <!-- Heart with pulse -->
  <path d="M160 50 C145 35 120 45 120 65 C120 90 160 110 160 110 C160 110 200 90 200 65 C200 45 175 35 160 50Z" fill="url(#healthAccent)" opacity="0.9"/>

  <!-- Pulse line -->
  <path d="M100 70 L130 70 L140 55 L150 85 L160 60 L170 75 L180 70 L220 70" stroke="#0D1117" stroke-width="3" fill="none" stroke-linecap="round" stroke-linejoin="round"/>

  <!-- Connection dots -->
  <circle cx="100" cy="70" r="4" fill="#FF4D6D"/>
  <circle cx="220" cy="70" r="4" fill="#FF4D6D"/>
</svg>
