<svg width="48" height="48" viewBox="0 0 48 48" fill="none" xmlns="http://www.w3.org/2000/svg">
  <defs>
    <linearGradient id="av1bg" x1="0%" y1="0%" x2="100%" y2="100%">
      <stop offset="0%" style="stop-color:#7C5CFF"/>
      <stop offset="100%" style="stop-color:#5B3FD9"/>
    </linearGradient>
  </defs>
  <!-- Background -->
  <circle cx="24" cy="24" r="24" fill="url(#av1bg)"/>
  <!-- Hair -->
  <ellipse cx="24" cy="14" rx="11" ry="9" fill="#2D1810"/>
  <path d="M13 16 Q13 10 24 8 Q35 10 35 16 Q35 20 32 22 L32 18 Q30 14 24 14 Q18 14 16 18 L16 22 Q13 20 13 16Z" fill="#2D1810"/>
  <!-- Face -->
  <ellipse cx="24" cy="20" rx="9" ry="10" fill="#E8C4A0"/>
  <!-- Eyes -->
  <ellipse cx="20" cy="19" rx="1.5" ry="2" fill="#2D1810"/>
  <ellipse cx="28" cy="19" rx="1.5" ry="2" fill="#2D1810"/>
  <!-- Smile -->
  <path d="M20 24 Q24 27 28 24" stroke="#2D1810" stroke-width="1.5" fill="none" stroke-linecap="round"/>
  <!-- Neck -->
  <rect x="21" y="29" width="6" height="4" fill="#E8C4A0"/>
  <!-- Shirt -->
  <path d="M12 48 Q12 36 24 33 Q36 36 36 48" fill="#2DE2E6"/>
</svg>
