<svg width="48" height="48" viewBox="0 0 48 48" fill="none" xmlns="http://www.w3.org/2000/svg">
  <defs>
    <linearGradient id="av3bg" x1="0%" y1="0%" x2="100%" y2="100%">
      <stop offset="0%" style="stop-color:#2DE2E6"/>
      <stop offset="100%" style="stop-color:#00D68F"/>
    </linearGradient>
  </defs>
  <!-- Background -->
  <circle cx="24" cy="24" r="24" fill="url(#av3bg)"/>
  <!-- Hair (blonde, long) -->
  <ellipse cx="24" cy="16" rx="12" ry="12" fill="#E6C87A"/>
  <path d="M12 18 Q10 30 14 40" stroke="#E6C87A" stroke-width="6" fill="none" stroke-linecap="round"/>
  <path d="M36 18 Q38 30 34 40" stroke="#E6C87A" stroke-width="6" fill="none" stroke-linecap="round"/>
  <!-- Face -->
  <ellipse cx="24" cy="20" rx="8" ry="9" fill="#F5D5C8"/>
  <!-- Eyes -->
  <ellipse cx="20" cy="19" rx="1.5" ry="2" fill="#4A7C59"/>
  <ellipse cx="28" cy="19" rx="1.5" ry="2" fill="#4A7C59"/>
  <!-- Eyelashes -->
  <path d="M18 17 L19 18" stroke="#2D1810" stroke-width="0.5"/>
  <path d="M21 17 L20 18" stroke="#2D1810" stroke-width="0.5"/>
  <path d="M27 17 L28 18" stroke="#2D1810" stroke-width="0.5"/>
  <path d="M30 17 L29 18" stroke="#2D1810" stroke-width="0.5"/>
  <!-- Smile -->
  <path d="M21 24 Q24 26 27 24" stroke="#D4A574" stroke-width="1.5" fill="none" stroke-linecap="round"/>
  <!-- Blush -->
  <ellipse cx="17" cy="22" rx="2" ry="1" fill="#FFB5B5" opacity="0.5"/>
  <ellipse cx="31" cy="22" rx="2" ry="1" fill="#FFB5B5" opacity="0.5"/>
  <!-- Neck -->
  <rect x="21" y="28" width="6" height="4" fill="#F5D5C8"/>
  <!-- Shirt -->
  <path d="M12 48 Q12 36 24 33 Q36 36 36 48" fill="#FF4D6D"/>
</svg>
