<svg width="48" height="48" viewBox="0 0 48 48" fill="none" xmlns="http://www.w3.org/2000/svg">
  <defs>
    <linearGradient id="av4bg" x1="0%" y1="0%" x2="100%" y2="100%">
      <stop offset="0%" style="stop-color:#9178FF"/>
      <stop offset="100%" style="stop-color:#7C5CFF"/>
    </linearGradient>
  </defs>
  <!-- Background -->
  <circle cx="24" cy="24" r="24" fill="url(#av4bg)"/>
  <!-- Hair (curly, dark) -->
  <ellipse cx="24" cy="12" rx="11" ry="8" fill="#1a1a1a"/>
  <circle cx="16" cy="11" r="3" fill="#1a1a1a"/>
  <circle cx="24" cy="9" r="3" fill="#1a1a1a"/>
  <circle cx="32" cy="11" r="3" fill="#1a1a1a"/>
  <!-- Face -->
  <ellipse cx="24" cy="20" rx="9" ry="10" fill="#8D5524"/>
  <!-- Eyes -->
  <ellipse cx="20" cy="19" rx="1.5" ry="2" fill="#1a1a1a"/>
  <ellipse cx="28" cy="19" rx="1.5" ry="2" fill="#1a1a1a"/>
  <!-- Eyebrows -->
  <path d="M17 16 L22 17" stroke="#1a1a1a" stroke-width="1.5" stroke-linecap="round"/>
  <path d="M26 17 L31 16" stroke="#1a1a1a" stroke-width="1.5" stroke-linecap="round"/>
  <!-- Nose -->
  <path d="M24 20 L23 24 L25 24" stroke="#7A4A1E" stroke-width="1" fill="none" stroke-linecap="round" stroke-linejoin="round"/>
  <!-- Smile -->
  <path d="M20 26 Q24 29 28 26" stroke="#1a1a1a" stroke-width="1.5" fill="none" stroke-linecap="round"/>
  <!-- Beard hint -->
  <path d="M18 27 Q24 32 30 27" stroke="#1a1a1a" stroke-width="0.5" fill="none" opacity="0.3"/>
  <!-- Neck -->
  <rect x="21" y="29" width="6" height="4" fill="#8D5524"/>
  <!-- Shirt -->
  <path d="M12 48 Q12 36 24 33 Q36 36 36 48" fill="#00D68F"/>
</svg>
