<svg width="48" height="48" viewBox="0 0 48 48" fill="none" xmlns="http://www.w3.org/2000/svg">
  <defs>
    <linearGradient id="av5bg" x1="0%" y1="0%" x2="100%" y2="100%">
      <stop offset="0%" style="stop-color:#FF4D6D"/>
      <stop offset="100%" style="stop-color:#FF8FAB"/>
    </linearGradient>
  </defs>
  <!-- Background -->
  <circle cx="24" cy="24" r="24" fill="url(#av5bg)"/>
  <!-- Hair (red/auburn, medium) -->
  <ellipse cx="24" cy="14" rx="12" ry="10" fill="#8B3A3A"/>
  <path d="M12 16 Q11 28 15 36" stroke="#8B3A3A" stroke-width="5" fill="none" stroke-linecap="round"/>
  <path d="M36 16 Q37 28 33 36" stroke="#8B3A3A" stroke-width="5" fill="none" stroke-linecap="round"/>
  <!-- Face -->
  <ellipse cx="24" cy="20" rx="8" ry="9" fill="#F5D5C8"/>
  <!-- Freckles -->
  <circle cx="18" cy="21" r="0.8" fill="#D4A574" opacity="0.5"/>
  <circle cx="20" cy="22" r="0.8" fill="#D4A574" opacity="0.5"/>
  <circle cx="28" cy="22" r="0.8" fill="#D4A574" opacity="0.5"/>
  <circle cx="30" cy="21" r="0.8" fill="#D4A574" opacity="0.5"/>
  <!-- Eyes -->
  <ellipse cx="20" cy="19" rx="1.5" ry="2" fill="#5B7C3D"/>
  <ellipse cx="28" cy="19" rx="1.5" ry="2" fill="#5B7C3D"/>
  <!-- Eyebrows -->
  <path d="M18 16 Q20 15 22 16" stroke="#6B2A2A" stroke-width="1" fill="none"/>
  <path d="M26 16 Q28 15 30 16" stroke="#6B2A2A" stroke-width="1" fill="none"/>
  <!-- Smile -->
  <path d="M21 24 Q24 27 27 24" stroke="#D4A574" stroke-width="1.5" fill="none" stroke-linecap="round"/>
  <!-- Blush -->
  <ellipse cx="17" cy="22" rx="2" ry="1" fill="#FFB5B5" opacity="0.4"/>
  <ellipse cx="31" cy="22" rx="2" ry="1" fill="#FFB5B5" opacity="0.4"/>
  <!-- Neck -->
  <rect x="21" y="28" width="6" height="4" fill="#F5D5C8"/>
  <!-- Shirt -->
  <path d="M12 48 Q12 36 24 33 Q36 36 36 48" fill="#FFBD59"/>
</svg>
